{"title":"One Pice 622- 480p{pawan &amp; vikramjit]","uid":9256895,"size":66292486,"categoryP":"video","categoryS":"other","magnet":"?xt=urn:btih:f8ce25dc63e61e87dffbd76b0036362586071670&amp;dn=One+Pice+622-+480p%7Bpawan+%26amp%3B+vikramjit%5D&amp;tr=udp%3A%2F%2Ftracker.openbittorrent.com%3A80&amp;tr=udp%3A%2F%2Fopen.demonii.com%3A1337&amp;tr=udp%3A%2F%2Ftracker.coppersurfer.tk%3A6969&amp;tr=udp%3A%2F%2Fexodus.desync.com%3A6969","seeders":0,"leechers":0,"uploader":"passbyto","files":1,"time":1385566325,"description":" &lt;a href=&quot;http://webtaj.com/images/des-pisode-dits-anim-one-piece-sur-mcm-playstation_270762.jpg&quot; rel=&quot;nofollow&quot; target=&quot;_NEW&quot;&gt;http://webtaj.com/images/des-pisode-dits-anim-one-piece-sur-mcm-playstation_270762.jpg&lt;/a&gt;\n---------\n\n====================================\nEncode Settings\n=====================================\nGeneral\nComplete name : One Piece English subbed 622\nReleased : 24 Nov 2013\nFormat : MPEG-4\nFormat profile : Base Media\nCodec ID : isom\nFile size : 63.2 MiB\nDuration : 23mn 25s\nOverall bit rate mode : Variable\nOverall bit rate : 377 Kbps\n\nVideo\nID : 1\nFormat : AVC\nFormat/Info : Advanced Video Codec\nFormat profile : &lt;a class=&quot;__cf_email__&quot; href=&quot;/cdn-cgi/l/email-protection&quot; data-cfemail=&quot;a0e8c9c7c8e0ec938e91&quot;&gt;[email&amp;#160;protected]&lt;/a&gt;&lt;script cf-hash='f9e31' type=&quot;text/javascript&quot;&gt;\n/* &lt;![CDATA[ */!function(){try{var t=&quot;currentScript&quot;in document?document.currentScript:function(){for(var t=document.getElementsByTagName(&quot;script&quot;),e=t.length;e--;)if(t[e].getAttribute(&quot;cf-hash&quot;))return t[e]}();if(t&amp;&amp;t.previousSibling){var e,r,n,i,c=t.previousSibling,a=c.getAttribute(&quot;data-cfemail&quot;);if(a){for(e=&quot;&quot;,r=parseInt(a.substr(0,2),16),n=2;a.length-n;n+=2)i=parseInt(a.substr(n,2),16)^r,e+=String.fromCharCode(i);e=document.createTextNode(e),c.parentNode.replaceChild(e,c)}}}catch(u){}}();/* ]]&gt; */&lt;/script&gt;\nFormat settings, CABAC : Yes\nFormat settings, ReFrames : 8 frames\nCodec ID : avc1\nCodec ID/Info : Advanced Video Coding\nDuration : 23mn 24s\nBit rate : 310 Kbps\nMaximum bit rate : 1 877 Kbps\nWidth : 720 pixels\nHeight : 408 pixels\nDisplay aspect ratio : 16:9\nFrame rate mode : Constant\nFrame rate : 30.000 fps\nColor space : YUV\nChroma subsampling : 4:2:0\nBit depth : 8 bits\nScan type : Progressive\nBits/(Pixel*Frame) : 0.035\nStream size : 51.9 MiB (82%)\n\n\nAudio\nID : 2\nFormat : AAC\nFormat/Info : Advanced Audio Codec\nFormat profile : HE-AAC / LC\nCodec ID : 40\nDuration : 23mn 25s\nBit rate mode : Variable\nBit rate : 64.0 Kbps\nMaximum bit rate : 70.2 Kbps\nChannel count : 2 channels\nChannel positions : Front: L R\nSampling rate : 44.1 KHz / 22.05 KHz\nCompression mode : Lossy\nStream size : 10.7 MiB (17%)\n\n==================================\n\n &lt;a href=&quot;\nhttp://i.imgur.com/mktPQEC.png&quot; rel=&quot;nofollow&quot; target=&quot;_NEW&quot;&gt;\nhttp://i.imgur.com/mktPQEC.png&lt;/a&gt;\n &lt;a href=&quot;\nhttp://i.imgur.com/DgFz0zZ.png&quot; rel=&quot;nofollow&quot; target=&quot;_NEW&quot;&gt;\nhttp://i.imgur.com/DgFz0zZ.png&lt;/a&gt;\n &lt;a href=&quot;\nhttp://i.imgur.com/5r46Nes.png&quot; rel=&quot;nofollow&quot; target=&quot;_NEW&quot;&gt;\nhttp://i.imgur.com/5r46Nes.png&lt;/a&gt;\n &lt;a href=&quot;\nhttp://i.imgur.com/siTHKPr.png&quot; rel=&quot;nofollow&quot; target=&quot;_NEW&quot;&gt;\nhttp://i.imgur.com/siTHKPr.png&lt;/a&gt;\n &lt;a href=&quot;\nhttp://i.imgur.com/08EpFJR.png&quot; rel=&quot;nofollow&quot; target=&quot;_NEW&quot;&gt;\nhttp://i.imgur.com/08EpFJR.png&lt;/a&gt;\n &lt;a href=&quot;\nhttp://i.imgur.com/3UnQnAZ.png&quot; rel=&quot;nofollow&quot; target=&quot;_NEW&quot;&gt;\nhttp://i.imgur.com/3UnQnAZ.png&lt;/a&gt;\n &lt;a href=&quot;\nhttp://i.imgur.com/BQVuBZf.png&quot; rel=&quot;nofollow&quot; target=&quot;_NEW&quot;&gt;\nhttp://i.imgur.com/BQVuBZf.png&lt;/a&gt;\n &lt;a href=&quot;\nhttp://i.imgur.com/x0nztOY.png&quot; rel=&quot;nofollow&quot; target=&quot;_NEW&quot;&gt;\nhttp://i.imgur.com/x0nztOY.png&lt;/a&gt;\n\n====================================\n\nTune In For More Again !\n\n\n\n\n=======\n\n(-:\n\n\n\nHey guys Dont be naughty , After download keep it as it is for seeding :-}\t\n\n\n======\n","torrent":{"xt":"urn:btih:f8ce25dc63e61e87dffbd76b0036362586071670","amp;dn":"One+Pice+622-+480p%7Bpawan+%26amp%3B+vikramjit%5D","amp;tr":["udp%3A%2F%2Ftracker.openbittorrent.com%3A80","udp%3A%2F%2Fopen.demonii.com%3A1337","udp%3A%2F%2Ftracker.coppersurfer.tk%3A6969","udp%3A%2F%2Fexodus.desync.com%3A6969"],"infoHash":"f8ce25dc63e61e87dffbd76b0036362586071670","infoHashBuffer":{"type":"Buffer","data":[248,206,37,220,99,230,30,135,223,251,215,107,0,54,54,37,134,7,22,112]},"announce":[],"urlList":[]}}